<svg xmlns="http://www.w3.org/2000/svg" xmlns:xlink="http://www.w3.org/1999/xlink" viewBox="0 0 71 81" fill="#fff" fill-rule="evenodd" stroke="#000" stroke-linecap="round" stroke-linejoin="round"><use xlink:href="#A" x=".5" y=".5"/><symbol id="A" overflow="visible"><path d="M70 44.248c0-11.703-5.469-21.964-13.75-28.537v1.122c0 3.527-.938 6.894-2.344 9.779a26.44 26.44 0 0 1 6.563 17.475c0 14.43-11.406 26.133-25.469 26.133S9.531 58.517 9.531 44.088c0-7.215 2.813-13.627 7.344-18.437-1.25-2.725-2.031-5.771-2.031-8.978 0-.641 0-1.443.156-2.084C5.938 21.002 0 31.904 0 44.088 0 63.968 15.625 80 35 80s35-15.872 35-35.752zM35.469 0c-8.906 0-16.094 7.375-16.094 16.513 0 7.535 4.844 13.788 11.563 15.872v16.353h-7.5v8.337h7.5v6.092h8.906V32.385c6.719-1.924 11.563-8.337 11.563-15.872C51.563 7.375 44.375 0 35.469 0zm0 8.657c4.219 0 7.656 3.527 7.656 7.856s-3.438 7.856-7.656 7.856-7.656-3.527-7.656-7.856 3.438-7.856 7.656-7.856z" fill="#0078d7" stroke="none"/></symbol></svg>